<?xml version="1.0" encoding="UTF-8"?>
<!DOCTYPE svg PUBLIC "-//W3C//DTD SVG 1.1//EN" "http://www.w3.org/Graphics/SVG/1.1/DTD/svg11.dtd">
<svg xmlns="http://www.w3.org/2000/svg" xmlns:xlink="http://www.w3.org/1999/xlink" version="1.1" width="965px" height="706px" viewBox="-0.5 -0.5 965 706" style="background-color: rgb(255, 255, 255);"><defs><clipPath id="mx-clip-4-311-152-26-0"><rect x="4" y="311" width="152" height="26"/></clipPath><clipPath id="mx-clip-4-337-152-26-0"><rect x="4" y="337" width="152" height="26"/></clipPath><clipPath id="mx-clip-4-363-152-26-0"><rect x="4" y="363" width="152" height="26"/></clipPath><clipPath id="mx-clip-4-389-152-26-0"><rect x="4" y="389" width="152" height="26"/></clipPath><clipPath id="mx-clip-4-415-152-26-0"><rect x="4" y="415" width="152" height="26"/></clipPath><clipPath id="mx-clip-4-441-152-26-0"><rect x="4" y="441" width="152" height="26"/></clipPath><clipPath id="mx-clip-4-551-152-26-0"><rect x="4" y="551" width="152" height="26"/></clipPath><clipPath id="mx-clip-4-577-152-26-0"><rect x="4" y="577" width="152" height="26"/></clipPath><clipPath id="mx-clip-4-603-152-26-0"><rect x="4" y="603" width="152" height="26"/></clipPath><clipPath id="mx-clip-4-629-152-26-0"><rect x="4" y="629" width="152" height="26"/></clipPath><clipPath id="mx-clip-4-655-152-26-0"><rect x="4" y="655" width="152" height="26"/></clipPath><clipPath id="mx-clip-4-681-152-26-0"><rect x="4" y="681" width="152" height="26"/></clipPath><clipPath id="mx-clip-204-311-152-26-0"><rect x="204" y="311" width="152" height="26"/></clipPath><clipPath id="mx-clip-204-337-152-26-0"><rect x="204" y="337" width="152" height="26"/></clipPath><clipPath id="mx-clip-204-363-152-26-0"><rect x="204" y="363" width="152" height="26"/></clipPath><clipPath id="mx-clip-204-389-152-26-0"><rect x="204" y="389" width="152" height="26"/></clipPath><clipPath id="mx-clip-204-415-152-26-0"><rect x="204" y="415" width="152" height="26"/></clipPath><clipPath id="mx-clip-204-441-152-26-0"><rect x="204" y="441" width="152" height="26"/></clipPath><clipPath id="mx-clip-204-551-152-26-0"><rect x="204" y="551" width="152" height="26"/></clipPath><clipPath id="mx-clip-204-577-152-26-0"><rect x="204" y="577" width="152" height="26"/></clipPath><clipPath id="mx-clip-204-603-152-26-0"><rect x="204" y="603" width="152" height="26"/></clipPath><clipPath id="mx-clip-204-629-152-26-0"><rect x="204" y="629" width="152" height="26"/></clipPath><clipPath id="mx-clip-204-655-152-26-0"><rect x="204" y="655" width="152" height="26"/></clipPath><clipPath id="mx-clip-204-681-152-26-0"><rect x="204" y="681" width="152" height="26"/></clipPath><clipPath id="mx-clip-404-311-152-26-0"><rect x="404" y="311" width="152" height="26"/></clipPath><clipPath id="mx-clip-404-337-152-26-0"><rect x="404" y="337" width="152" height="26"/></clipPath><clipPath id="mx-clip-404-551-152-26-0"><rect x="404" y="551" width="152" height="26"/></clipPath><clipPath id="mx-clip-404-577-152-26-0"><rect x="404" y="577" width="152" height="26"/></clipPath><clipPath id="mx-clip-604-311-152-26-0"><rect x="604" y="311" width="152" height="26"/></clipPath><clipPath id="mx-clip-604-337-152-26-0"><rect x="604" y="337" width="152" height="26"/></clipPath><clipPath id="mx-clip-604-363-152-26-0"><rect x="604" y="363" width="152" height="26"/></clipPath><clipPath id="mx-clip-604-389-152-26-0"><rect x="604" y="389" width="152" height="26"/></clipPath><clipPath id="mx-clip-604-415-152-26-0"><rect x="604" y="415" width="152" height="26"/></clipPath><clipPath id="mx-clip-604-441-152-26-0"><rect x="604" y="441" width="152" height="26"/></clipPath><clipPath id="mx-clip-604-551-152-26-0"><rect x="604" y="551" width="152" height="26"/></clipPath><clipPath id="mx-clip-604-577-152-26-0"><rect x="604" y="577" width="152" height="26"/></clipPath><clipPath id="mx-clip-604-603-152-26-0"><rect x="604" y="603" width="152" height="26"/></clipPath><clipPath id="mx-clip-604-629-152-26-0"><rect x="604" y="629" width="152" height="26"/></clipPath><clipPath id="mx-clip-604-655-152-26-0"><rect x="604" y="655" width="152" height="26"/></clipPath><clipPath id="mx-clip-604-681-152-26-0"><rect x="604" y="681" width="152" height="26"/></clipPath><clipPath id="mx-clip-808-311-152-26-0"><rect x="808" y="311" width="152" height="26"/></clipPath><clipPath id="mx-clip-808-337-152-26-0"><rect x="808" y="337" width="152" height="26"/></clipPath><clipPath id="mx-clip-808-363-152-26-0"><rect x="808" y="363" width="152" height="26"/></clipPath><clipPath id="mx-clip-808-389-152-26-0"><rect x="808" y="389" width="152" height="26"/></clipPath><clipPath id="mx-clip-808-415-152-26-0"><rect x="808" y="415" width="152" height="26"/></clipPath><clipPath id="mx-clip-808-551-152-26-0"><rect x="808" y="551" width="152" height="26"/></clipPath><clipPath id="mx-clip-808-577-152-26-0"><rect x="808" y="577" width="152" height="26"/></clipPath><clipPath id="mx-clip-808-603-152-26-0"><rect x="808" y="603" width="152" height="26"/></clipPath><clipPath id="mx-clip-808-629-152-26-0"><rect x="808" y="629" width="152" height="26"/></clipPath><clipPath id="mx-clip-808-655-152-26-0"><rect x="808" y="655" width="152" height="26"/></clipPath><clipPath id="mx-clip-404-31-152-26-0"><rect x="404" y="31" width="152" height="26"/></clipPath><clipPath id="mx-clip-404-57-152-26-0"><rect x="404" y="57" width="152" height="26"/></clipPath><clipPath id="mx-clip-404-83-152-26-0"><rect x="404" y="83" width="152" height="26"/></clipPath><clipPath id="mx-clip-404-109-152-26-0"><rect x="404" y="109" width="152" height="26"/></clipPath><clipPath id="mx-clip-404-135-152-26-0"><rect x="404" y="135" width="152" height="26"/></clipPath></defs><g><path d="M 0 306 L 0 280 L 160 280 L 160 306" fill="rgb(255, 255, 255)" stroke="rgb(0, 0, 0)" stroke-miterlimit="10" pointer-events="all"/><path d="M 0 306 L 0 462 L 160 462 L 160 306" fill="none" stroke="rgb(0, 0, 0)" stroke-miterlimit="10" pointer-events="none"/><path d="M 0 306 L 160 306" fill="none" stroke="rgb(0, 0, 0)" stroke-miterlimit="10" pointer-events="none"/><g fill="rgb(0, 0, 0)" font-family="Helvetica" font-style="italic" pointer-events="none" text-anchor="middle" font-size="12px"><text x="79.5" y="297.5">IUserRepo</text></g><g fill="rgb(0, 0, 0)" font-family="Helvetica" pointer-events="none" clip-path="url(#mx-clip-4-311-152-26-0)" font-size="12px"><text x="5.5" y="323.5">GetByUuid()</text></g><g fill="rgb(0, 0, 0)" font-family="Helvetica" pointer-events="none" clip-path="url(#mx-clip-4-337-152-26-0)" font-size="12px"><text x="5.5" y="349.5">List()</text></g><g fill="rgb(0, 0, 0)" font-family="Helvetica" pointer-events="none" clip-path="url(#mx-clip-4-363-152-26-0)" font-size="12px"><text x="5.5" y="375.5">Create()</text></g><g fill="rgb(0, 0, 0)" font-family="Helvetica" pointer-events="none" clip-path="url(#mx-clip-4-389-152-26-0)" font-size="12px"><text x="5.5" y="401.5">Update()</text></g><g fill="rgb(0, 0, 0)" font-family="Helvetica" pointer-events="none" clip-path="url(#mx-clip-4-415-152-26-0)" font-size="12px"><text x="5.5" y="427.5">Delete()</text></g><g fill="rgb(0, 0, 0)" font-family="Helvetica" pointer-events="none" clip-path="url(#mx-clip-4-441-152-26-0)" font-size="12px"><text x="5.5" y="453.5">Restore()</text></g><path d="M 0 546 L 0 520 L 160 520 L 160 546" fill="rgb(255, 255, 255)" stroke="rgb(0, 0, 0)" stroke-miterlimit="10" pointer-events="none"/><path d="M 0 546 L 0 702 L 160 702 L 160 546" fill="none" stroke="rgb(0, 0, 0)" stroke-miterlimit="10" pointer-events="none"/><path d="M 0 546 L 160 546" fill="none" stroke="rgb(0, 0, 0)" stroke-miterlimit="10" pointer-events="none"/><g fill="rgb(0, 0, 0)" font-family="Helvetica" font-style="italic" pointer-events="none" text-anchor="middle" font-size="12px"><text x="79.5" y="537.5">userRepo</text></g><g fill="rgb(0, 0, 0)" font-family="Helvetica" pointer-events="none" clip-path="url(#mx-clip-4-551-152-26-0)" font-size="12px"><text x="5.5" y="563.5">GetByUuid()</text></g><g fill="rgb(0, 0, 0)" font-family="Helvetica" pointer-events="none" clip-path="url(#mx-clip-4-577-152-26-0)" font-size="12px"><text x="5.5" y="589.5">List()</text></g><g fill="rgb(0, 0, 0)" font-family="Helvetica" pointer-events="none" clip-path="url(#mx-clip-4-603-152-26-0)" font-size="12px"><text x="5.5" y="615.5">Create()</text></g><g fill="rgb(0, 0, 0)" font-family="Helvetica" pointer-events="none" clip-path="url(#mx-clip-4-629-152-26-0)" font-size="12px"><text x="5.5" y="641.5">Update()</text></g><g fill="rgb(0, 0, 0)" font-family="Helvetica" pointer-events="none" clip-path="url(#mx-clip-4-655-152-26-0)" font-size="12px"><text x="5.5" y="667.5">Delete()</text></g><g fill="rgb(0, 0, 0)" font-family="Helvetica" pointer-events="none" clip-path="url(#mx-clip-4-681-152-26-0)" font-size="12px"><text x="5.5" y="693.5">Restore()</text></g><path d="M 80 520 L 80 476.12" fill="none" stroke="rgb(0, 0, 0)" stroke-miterlimit="10" stroke-dasharray="3 3" pointer-events="none"/><path d="M 80 463.12 L 86.5 476.12 L 73.5 476.12 Z" fill="none" stroke="rgb(0, 0, 0)" stroke-miterlimit="10" pointer-events="none"/><path d="M 200 306 L 200 280 L 360 280 L 360 306" fill="rgb(255, 255, 255)" stroke="rgb(0, 0, 0)" stroke-miterlimit="10" pointer-events="none"/><path d="M 200 306 L 200 462 L 360 462 L 360 306" fill="none" stroke="rgb(0, 0, 0)" stroke-miterlimit="10" pointer-events="none"/><path d="M 200 306 L 360 306" fill="none" stroke="rgb(0, 0, 0)" stroke-miterlimit="10" pointer-events="none"/><g fill="rgb(0, 0, 0)" font-family="Helvetica" font-style="italic" pointer-events="none" text-anchor="middle" font-size="12px"><text x="279.5" y="297.5">IInvationRepo</text></g><g fill="rgb(0, 0, 0)" font-family="Helvetica" pointer-events="none" clip-path="url(#mx-clip-204-311-152-26-0)" font-size="12px"><text x="205.5" y="323.5">GetByUuid()</text></g><g fill="rgb(0, 0, 0)" font-family="Helvetica" pointer-events="none" clip-path="url(#mx-clip-204-337-152-26-0)" font-size="12px"><text x="205.5" y="349.5">ListByUser()</text></g><g fill="rgb(0, 0, 0)" font-family="Helvetica" pointer-events="none" clip-path="url(#mx-clip-204-363-152-26-0)" font-size="12px"><text x="205.5" y="375.5">List()</text></g><g fill="rgb(0, 0, 0)" font-family="Helvetica" pointer-events="none" clip-path="url(#mx-clip-204-389-152-26-0)" font-size="12px"><text x="205.5" y="401.5">Create()</text></g><g fill="rgb(0, 0, 0)" font-family="Helvetica" pointer-events="none" clip-path="url(#mx-clip-204-415-152-26-0)" font-size="12px"><text x="205.5" y="427.5">Update()</text></g><g fill="rgb(0, 0, 0)" font-family="Helvetica" pointer-events="none" clip-path="url(#mx-clip-204-441-152-26-0)" font-size="12px"><text x="205.5" y="453.5">Delete()</text></g><path d="M 200 546 L 200 520 L 360 520 L 360 546" fill="rgb(255, 255, 255)" stroke="rgb(0, 0, 0)" stroke-miterlimit="10" pointer-events="none"/><path d="M 200 546 L 200 702 L 360 702 L 360 546" fill="none" stroke="rgb(0, 0, 0)" stroke-miterlimit="10" pointer-events="none"/><path d="M 200 546 L 360 546" fill="none" stroke="rgb(0, 0, 0)" stroke-miterlimit="10" pointer-events="none"/><g fill="rgb(0, 0, 0)" font-family="Helvetica" font-style="italic" pointer-events="none" text-anchor="middle" font-size="12px"><text x="279.5" y="537.5">invationRepo</text></g><g fill="rgb(0, 0, 0)" font-family="Helvetica" pointer-events="none" clip-path="url(#mx-clip-204-551-152-26-0)" font-size="12px"><text x="205.5" y="563.5">GetByUuid()</text></g><g fill="rgb(0, 0, 0)" font-family="Helvetica" pointer-events="none" clip-path="url(#mx-clip-204-577-152-26-0)" font-size="12px"><text x="205.5" y="589.5">ListByUser()</text></g><g fill="rgb(0, 0, 0)" font-family="Helvetica" pointer-events="none" clip-path="url(#mx-clip-204-603-152-26-0)" font-size="12px"><text x="205.5" y="615.5">List()</text></g><g fill="rgb(0, 0, 0)" font-family="Helvetica" pointer-events="none" clip-path="url(#mx-clip-204-629-152-26-0)" font-size="12px"><text x="205.5" y="641.5">Create()</text></g><g fill="rgb(0, 0, 0)" font-family="Helvetica" pointer-events="none" clip-path="url(#mx-clip-204-655-152-26-0)" font-size="12px"><text x="205.5" y="667.5">Update()</text></g><g fill="rgb(0, 0, 0)" font-family="Helvetica" pointer-events="none" clip-path="url(#mx-clip-204-681-152-26-0)" font-size="12px"><text x="205.5" y="693.5">Delete()</text></g><path d="M 280 520 L 280 476.12" fill="none" stroke="rgb(0, 0, 0)" stroke-miterlimit="10" stroke-dasharray="3 3" pointer-events="none"/><path d="M 280 463.12 L 286.5 476.12 L 273.5 476.12 Z" fill="none" stroke="rgb(0, 0, 0)" stroke-miterlimit="10" pointer-events="none"/><path d="M 400 306 L 400 280 L 560 280 L 560 306" fill="rgb(255, 255, 255)" stroke="rgb(0, 0, 0)" stroke-miterlimit="10" pointer-events="none"/><path d="M 400 306 L 400 358 L 560 358 L 560 306" fill="none" stroke="rgb(0, 0, 0)" stroke-miterlimit="10" pointer-events="none"/><path d="M 400 306 L 560 306" fill="none" stroke="rgb(0, 0, 0)" stroke-miterlimit="10" pointer-events="none"/><g fill="rgb(0, 0, 0)" font-family="Helvetica" font-style="italic" pointer-events="none" text-anchor="middle" font-size="12px"><text x="479.5" y="297.5">IAccessRightRepo</text></g><g fill="rgb(0, 0, 0)" font-family="Helvetica" pointer-events="none" clip-path="url(#mx-clip-404-311-152-26-0)" font-size="12px"><text x="405.5" y="323.5">GetByCode()</text></g><g fill="rgb(0, 0, 0)" font-family="Helvetica" pointer-events="none" clip-path="url(#mx-clip-404-337-152-26-0)" font-size="12px"><text x="405.5" y="349.5">List()</text></g><path d="M 400 546 L 400 520 L 560 520 L 560 546" fill="rgb(255, 255, 255)" stroke="rgb(0, 0, 0)" stroke-miterlimit="10" pointer-events="none"/><path d="M 400 546 L 400 598 L 560 598 L 560 546" fill="none" stroke="rgb(0, 0, 0)" stroke-miterlimit="10" pointer-events="none"/><path d="M 400 546 L 560 546" fill="none" stroke="rgb(0, 0, 0)" stroke-miterlimit="10" pointer-events="none"/><g fill="rgb(0, 0, 0)" font-family="Helvetica" font-style="italic" pointer-events="none" text-anchor="middle" font-size="12px"><text x="479.5" y="537.5">accessRightRepo</text></g><g fill="rgb(0, 0, 0)" font-family="Helvetica" pointer-events="none" clip-path="url(#mx-clip-404-551-152-26-0)" font-size="12px"><text x="405.5" y="563.5">GetByCode()</text></g><g fill="rgb(0, 0, 0)" font-family="Helvetica" pointer-events="none" clip-path="url(#mx-clip-404-577-152-26-0)" font-size="12px"><text x="405.5" y="589.5">List()</text></g><path d="M 480 520 L 480 372.12" fill="none" stroke="rgb(0, 0, 0)" stroke-miterlimit="10" stroke-dasharray="3 3" pointer-events="none"/><path d="M 480 359.12 L 486.5 372.12 L 473.5 372.12 Z" fill="none" stroke="rgb(0, 0, 0)" stroke-miterlimit="10" pointer-events="none"/><path d="M 600 306 L 600 280 L 760 280 L 760 306" fill="rgb(255, 255, 255)" stroke="rgb(0, 0, 0)" stroke-miterlimit="10" pointer-events="none"/><path d="M 600 306 L 600 462 L 760 462 L 760 306" fill="none" stroke="rgb(0, 0, 0)" stroke-miterlimit="10" pointer-events="none"/><path d="M 600 306 L 760 306" fill="none" stroke="rgb(0, 0, 0)" stroke-miterlimit="10" pointer-events="none"/><g fill="rgb(0, 0, 0)" font-family="Helvetica" font-style="italic" pointer-events="none" text-anchor="middle" font-size="12px"><text x="679.5" y="297.5">IEventRepo</text></g><g fill="rgb(0, 0, 0)" font-family="Helvetica" pointer-events="none" clip-path="url(#mx-clip-604-311-152-26-0)" font-size="12px"><text x="605.5" y="323.5">GetByUuid()</text></g><g fill="rgb(0, 0, 0)" font-family="Helvetica" pointer-events="none" clip-path="url(#mx-clip-604-337-152-26-0)" font-size="12px"><text x="605.5" y="349.5">Search()</text></g><g fill="rgb(0, 0, 0)" font-family="Helvetica" pointer-events="none" clip-path="url(#mx-clip-604-363-152-26-0)" font-size="12px"><text x="605.5" y="375.5">List()</text></g><g fill="rgb(0, 0, 0)" font-family="Helvetica" pointer-events="none" clip-path="url(#mx-clip-604-389-152-26-0)" font-size="12px"><text x="605.5" y="401.5">Create()</text></g><g fill="rgb(0, 0, 0)" font-family="Helvetica" pointer-events="none" clip-path="url(#mx-clip-604-415-152-26-0)" font-size="12px"><text x="605.5" y="427.5">Update()</text></g><g fill="rgb(0, 0, 0)" font-family="Helvetica" pointer-events="none" clip-path="url(#mx-clip-604-441-152-26-0)" font-size="12px"><text x="605.5" y="453.5">Delete()</text></g><path d="M 600 546 L 600 520 L 760 520 L 760 546" fill="rgb(255, 255, 255)" stroke="rgb(0, 0, 0)" stroke-miterlimit="10" pointer-events="none"/><path d="M 600 546 L 600 702 L 760 702 L 760 546" fill="none" stroke="rgb(0, 0, 0)" stroke-miterlimit="10" pointer-events="none"/><path d="M 600 546 L 760 546" fill="none" stroke="rgb(0, 0, 0)" stroke-miterlimit="10" pointer-events="none"/><g fill="rgb(0, 0, 0)" font-family="Helvetica" font-style="italic" pointer-events="none" text-anchor="middle" font-size="12px"><text x="679.5" y="537.5">eventRepo</text></g><g fill="rgb(0, 0, 0)" font-family="Helvetica" pointer-events="none" clip-path="url(#mx-clip-604-551-152-26-0)" font-size="12px"><text x="605.5" y="563.5">GetByUuid()</text></g><g fill="rgb(0, 0, 0)" font-family="Helvetica" pointer-events="none" clip-path="url(#mx-clip-604-577-152-26-0)" font-size="12px"><text x="605.5" y="589.5">Search()</text></g><g fill="rgb(0, 0, 0)" font-family="Helvetica" pointer-events="none" clip-path="url(#mx-clip-604-603-152-26-0)" font-size="12px"><text x="605.5" y="615.5">List()</text></g><g fill="rgb(0, 0, 0)" font-family="Helvetica" pointer-events="none" clip-path="url(#mx-clip-604-629-152-26-0)" font-size="12px"><text x="605.5" y="641.5">Create()</text></g><g fill="rgb(0, 0, 0)" font-family="Helvetica" pointer-events="none" clip-path="url(#mx-clip-604-655-152-26-0)" font-size="12px"><text x="605.5" y="667.5">Update()</text></g><g fill="rgb(0, 0, 0)" font-family="Helvetica" pointer-events="none" clip-path="url(#mx-clip-604-681-152-26-0)" font-size="12px"><text x="605.5" y="693.5">Delete()</text></g><path d="M 680 520 L 680 476.12" fill="none" stroke="rgb(0, 0, 0)" stroke-miterlimit="10" stroke-dasharray="3 3" pointer-events="none"/><path d="M 680 463.12 L 686.5 476.12 L 673.5 476.12 Z" fill="none" stroke="rgb(0, 0, 0)" stroke-miterlimit="10" pointer-events="none"/><path d="M 804 306 L 804 280 L 964 280 L 964 306" fill="rgb(255, 255, 255)" stroke="rgb(0, 0, 0)" stroke-miterlimit="10" pointer-events="none"/><path d="M 804 306 L 804 436 L 964 436 L 964 306" fill="none" stroke="rgb(0, 0, 0)" stroke-miterlimit="10" pointer-events="none"/><path d="M 804 306 L 964 306" fill="none" stroke="rgb(0, 0, 0)" stroke-miterlimit="10" pointer-events="none"/><g fill="rgb(0, 0, 0)" font-family="Helvetica" font-style="italic" pointer-events="none" text-anchor="middle" font-size="12px"><text x="883.5" y="297.5">ITagRepo</text></g><g fill="rgb(0, 0, 0)" font-family="Helvetica" pointer-events="none" clip-path="url(#mx-clip-808-311-152-26-0)" font-size="12px"><text x="809.5" y="323.5">GetByUuid()</text></g><g fill="rgb(0, 0, 0)" font-family="Helvetica" pointer-events="none" clip-path="url(#mx-clip-808-337-152-26-0)" font-size="12px"><text x="809.5" y="349.5">List()</text></g><g fill="rgb(0, 0, 0)" font-family="Helvetica" pointer-events="none" clip-path="url(#mx-clip-808-363-152-26-0)" font-size="12px"><text x="809.5" y="375.5">Create()</text></g><g fill="rgb(0, 0, 0)" font-family="Helvetica" pointer-events="none" clip-path="url(#mx-clip-808-389-152-26-0)" font-size="12px"><text x="809.5" y="401.5">Update()</text></g><g fill="rgb(0, 0, 0)" font-family="Helvetica" pointer-events="none" clip-path="url(#mx-clip-808-415-152-26-0)" font-size="12px"><text x="809.5" y="427.5">Delete()</text></g><path d="M 804 546 L 804 520 L 964 520 L 964 546" fill="rgb(255, 255, 255)" stroke="rgb(0, 0, 0)" stroke-miterlimit="10" pointer-events="none"/><path d="M 804 546 L 804 676 L 964 676 L 964 546" fill="none" stroke="rgb(0, 0, 0)" stroke-miterlimit="10" pointer-events="none"/><path d="M 804 546 L 964 546" fill="none" stroke="rgb(0, 0, 0)" stroke-miterlimit="10" pointer-events="none"/><g fill="rgb(0, 0, 0)" font-family="Helvetica" font-style="italic" pointer-events="none" text-anchor="middle" font-size="12px"><text x="883.5" y="537.5">tagRepo</text></g><g fill="rgb(0, 0, 0)" font-family="Helvetica" pointer-events="none" clip-path="url(#mx-clip-808-551-152-26-0)" font-size="12px"><text x="809.5" y="563.5">GetByUuid()</text></g><g fill="rgb(0, 0, 0)" font-family="Helvetica" pointer-events="none" clip-path="url(#mx-clip-808-577-152-26-0)" font-size="12px"><text x="809.5" y="589.5">List()</text></g><g fill="rgb(0, 0, 0)" font-family="Helvetica" pointer-events="none" clip-path="url(#mx-clip-808-603-152-26-0)" font-size="12px"><text x="809.5" y="615.5">Create()</text></g><g fill="rgb(0, 0, 0)" font-family="Helvetica" pointer-events="none" clip-path="url(#mx-clip-808-629-152-26-0)" font-size="12px"><text x="809.5" y="641.5">Update()</text></g><g fill="rgb(0, 0, 0)" font-family="Helvetica" pointer-events="none" clip-path="url(#mx-clip-808-655-152-26-0)" font-size="12px"><text x="809.5" y="667.5">Delete()</text></g><path d="M 884 520 L 884 450.12" fill="none" stroke="rgb(0, 0, 0)" stroke-miterlimit="10" stroke-dasharray="3 3" pointer-events="none"/><path d="M 884 437.12 L 890.5 450.12 L 877.5 450.12 Z" fill="none" stroke="rgb(0, 0, 0)" stroke-miterlimit="10" pointer-events="none"/><path d="M 400 26 L 400 0 L 560 0 L 560 26" fill="rgb(255, 255, 255)" stroke="rgb(0, 0, 0)" stroke-miterlimit="10" pointer-events="none"/><path d="M 400 26 L 400 156 L 560 156 L 560 26" fill="none" stroke="rgb(0, 0, 0)" stroke-miterlimit="10" pointer-events="none"/><path d="M 400 26 L 560 26" fill="none" stroke="rgb(0, 0, 0)" stroke-miterlimit="10" pointer-events="none"/><g fill="rgb(0, 0, 0)" font-family="Helvetica" font-style="italic" pointer-events="none" text-anchor="middle" font-size="12px"><text x="479.5" y="17.5">Repo</text></g><g fill="rgb(0, 0, 0)" font-family="Helvetica" pointer-events="none" clip-path="url(#mx-clip-404-31-152-26-0)" font-size="12px"><text x="405.5" y="43.5">IUserRepo</text></g><g fill="rgb(0, 0, 0)" font-family="Helvetica" pointer-events="none" clip-path="url(#mx-clip-404-57-152-26-0)" font-size="12px"><text x="405.5" y="69.5">IInvationRepo</text></g><g fill="rgb(0, 0, 0)" font-family="Helvetica" pointer-events="none" clip-path="url(#mx-clip-404-83-152-26-0)" font-size="12px"><text x="405.5" y="95.5">IAccessRightRepo</text></g><g fill="rgb(0, 0, 0)" font-family="Helvetica" pointer-events="none" clip-path="url(#mx-clip-404-109-152-26-0)" font-size="12px"><text x="405.5" y="121.5">IEventRepo</text></g><g fill="rgb(0, 0, 0)" font-family="Helvetica" pointer-events="none" clip-path="url(#mx-clip-404-135-152-26-0)" font-size="12px"><text x="405.5" y="147.5">ITagRepo</text></g><path d="M 80 280 L 80 220 Q 80 210 90 210 L 470 210 Q 480 210 480 200 L 480 181.99" fill="none" stroke="rgb(0, 0, 0)" stroke-miterlimit="10" pointer-events="none"/><path d="M 480 156.99 L 487.35 169.49 L 480 181.99 L 472.65 169.49 Z" fill="rgb(0, 0, 0)" stroke="rgb(0, 0, 0)" stroke-miterlimit="10" pointer-events="none"/><path d="M 280 280 L 280 220 Q 280 210 290 210 L 470 210 Q 480 210 480 200 L 480 181.99" fill="none" stroke="rgb(0, 0, 0)" stroke-miterlimit="10" pointer-events="none"/><path d="M 480 156.99 L 487.35 169.49 L 480 181.99 L 472.65 169.49 Z" fill="rgb(0, 0, 0)" stroke="rgb(0, 0, 0)" stroke-miterlimit="10" pointer-events="none"/><path d="M 480 280 L 480 220 Q 480 210 480 200 L 480 181.99" fill="none" stroke="rgb(0, 0, 0)" stroke-miterlimit="10" pointer-events="none"/><path d="M 480 156.99 L 487.35 169.49 L 480 181.99 L 472.65 169.49 Z" fill="rgb(0, 0, 0)" stroke="rgb(0, 0, 0)" stroke-miterlimit="10" pointer-events="none"/><path d="M 670 280 L 670 220 Q 670 210 660 210 L 490 210 Q 480 210 480 200 L 480 181.99" fill="none" stroke="rgb(0, 0, 0)" stroke-miterlimit="10" pointer-events="none"/><path d="M 480 156.99 L 487.35 169.49 L 480 181.99 L 472.65 169.49 Z" fill="rgb(0, 0, 0)" stroke="rgb(0, 0, 0)" stroke-miterlimit="10" pointer-events="none"/><path d="M 880 280 L 880 220 Q 880 210 870 210 L 490 210 Q 480 210 480 200 L 480 181.99" fill="none" stroke="rgb(0, 0, 0)" stroke-miterlimit="10" pointer-events="none"/><path d="M 480 156.99 L 487.35 169.49 L 480 181.99 L 472.65 169.49 Z" fill="rgb(0, 0, 0)" stroke="rgb(0, 0, 0)" stroke-miterlimit="10" pointer-events="none"/></g></svg>