<?xml version="1.0" encoding="UTF-8"?>
<!DOCTYPE svg PUBLIC "-//W3C//DTD SVG 1.1//EN" "http://www.w3.org/Graphics/SVG/1.1/DTD/svg11.dtd">
<svg xmlns="http://www.w3.org/2000/svg" xmlns:xlink="http://www.w3.org/1999/xlink" version="1.1" width="1171px" height="860px" viewBox="-0.5 -0.5 1171 860" style="background-color: rgb(255, 255, 255);"><defs><clipPath id="mx-clip-4-431-152-26-0"><rect x="4" y="431" width="152" height="26"/></clipPath><clipPath id="mx-clip-4-457-152-26-0"><rect x="4" y="457" width="152" height="26"/></clipPath><clipPath id="mx-clip-4-483-152-26-0"><rect x="4" y="483" width="152" height="26"/></clipPath><clipPath id="mx-clip-4-509-152-26-0"><rect x="4" y="509" width="152" height="26"/></clipPath><clipPath id="mx-clip-4-535-152-26-0"><rect x="4" y="535" width="152" height="26"/></clipPath><clipPath id="mx-clip-4-561-152-26-0"><rect x="4" y="561" width="152" height="26"/></clipPath><clipPath id="mx-clip-4-671-152-26-0"><rect x="4" y="671" width="152" height="26"/></clipPath><clipPath id="mx-clip-4-705-152-26-0"><rect x="4" y="705" width="152" height="26"/></clipPath><clipPath id="mx-clip-4-731-152-26-0"><rect x="4" y="731" width="152" height="26"/></clipPath><clipPath id="mx-clip-4-757-152-26-0"><rect x="4" y="757" width="152" height="26"/></clipPath><clipPath id="mx-clip-4-783-152-26-0"><rect x="4" y="783" width="152" height="26"/></clipPath><clipPath id="mx-clip-4-809-152-26-0"><rect x="4" y="809" width="152" height="26"/></clipPath><clipPath id="mx-clip-4-835-152-26-0"><rect x="4" y="835" width="152" height="26"/></clipPath><clipPath id="mx-clip-204-431-152-26-0"><rect x="204" y="431" width="152" height="26"/></clipPath><clipPath id="mx-clip-204-457-152-26-0"><rect x="204" y="457" width="152" height="26"/></clipPath><clipPath id="mx-clip-204-483-152-26-0"><rect x="204" y="483" width="152" height="26"/></clipPath><clipPath id="mx-clip-204-509-152-26-0"><rect x="204" y="509" width="152" height="26"/></clipPath><clipPath id="mx-clip-204-535-152-26-0"><rect x="204" y="535" width="152" height="26"/></clipPath><clipPath id="mx-clip-204-561-152-26-0"><rect x="204" y="561" width="152" height="26"/></clipPath><clipPath id="mx-clip-204-671-152-26-0"><rect x="204" y="671" width="152" height="26"/></clipPath><clipPath id="mx-clip-204-705-152-26-0"><rect x="204" y="705" width="152" height="26"/></clipPath><clipPath id="mx-clip-204-731-152-26-0"><rect x="204" y="731" width="152" height="26"/></clipPath><clipPath id="mx-clip-204-757-152-26-0"><rect x="204" y="757" width="152" height="26"/></clipPath><clipPath id="mx-clip-204-783-152-26-0"><rect x="204" y="783" width="152" height="26"/></clipPath><clipPath id="mx-clip-204-809-152-26-0"><rect x="204" y="809" width="152" height="26"/></clipPath><clipPath id="mx-clip-204-835-152-26-0"><rect x="204" y="835" width="152" height="26"/></clipPath><clipPath id="mx-clip-404-431-152-26-0"><rect x="404" y="431" width="152" height="26"/></clipPath><clipPath id="mx-clip-404-457-152-26-0"><rect x="404" y="457" width="152" height="26"/></clipPath><clipPath id="mx-clip-404-671-152-26-0"><rect x="404" y="671" width="152" height="26"/></clipPath><clipPath id="mx-clip-404-705-152-26-0"><rect x="404" y="705" width="152" height="26"/></clipPath><clipPath id="mx-clip-404-731-152-26-0"><rect x="404" y="731" width="152" height="26"/></clipPath><clipPath id="mx-clip-604-431-152-26-0"><rect x="604" y="431" width="152" height="26"/></clipPath><clipPath id="mx-clip-604-457-152-26-0"><rect x="604" y="457" width="152" height="26"/></clipPath><clipPath id="mx-clip-604-483-152-26-0"><rect x="604" y="483" width="152" height="26"/></clipPath><clipPath id="mx-clip-604-509-152-26-0"><rect x="604" y="509" width="152" height="26"/></clipPath><clipPath id="mx-clip-604-535-152-26-0"><rect x="604" y="535" width="152" height="26"/></clipPath><clipPath id="mx-clip-604-561-152-26-0"><rect x="604" y="561" width="152" height="26"/></clipPath><clipPath id="mx-clip-604-671-152-26-0"><rect x="604" y="671" width="152" height="26"/></clipPath><clipPath id="mx-clip-604-705-152-26-0"><rect x="604" y="705" width="152" height="26"/></clipPath><clipPath id="mx-clip-604-731-152-26-0"><rect x="604" y="731" width="152" height="26"/></clipPath><clipPath id="mx-clip-604-757-152-26-0"><rect x="604" y="757" width="152" height="26"/></clipPath><clipPath id="mx-clip-604-783-152-26-0"><rect x="604" y="783" width="152" height="26"/></clipPath><clipPath id="mx-clip-604-809-152-26-0"><rect x="604" y="809" width="152" height="26"/></clipPath><clipPath id="mx-clip-604-835-152-26-0"><rect x="604" y="835" width="152" height="26"/></clipPath><clipPath id="mx-clip-808-431-152-26-0"><rect x="808" y="431" width="152" height="26"/></clipPath><clipPath id="mx-clip-808-457-152-26-0"><rect x="808" y="457" width="152" height="26"/></clipPath><clipPath id="mx-clip-808-483-152-26-0"><rect x="808" y="483" width="152" height="26"/></clipPath><clipPath id="mx-clip-808-509-152-26-0"><rect x="808" y="509" width="152" height="26"/></clipPath><clipPath id="mx-clip-808-535-152-26-0"><rect x="808" y="535" width="152" height="26"/></clipPath><clipPath id="mx-clip-808-671-152-26-0"><rect x="808" y="671" width="152" height="26"/></clipPath><clipPath id="mx-clip-808-705-152-26-0"><rect x="808" y="705" width="152" height="26"/></clipPath><clipPath id="mx-clip-808-731-152-26-0"><rect x="808" y="731" width="152" height="26"/></clipPath><clipPath id="mx-clip-808-757-152-26-0"><rect x="808" y="757" width="152" height="26"/></clipPath><clipPath id="mx-clip-808-783-152-26-0"><rect x="808" y="783" width="152" height="26"/></clipPath><clipPath id="mx-clip-808-809-152-26-0"><rect x="808" y="809" width="152" height="26"/></clipPath><clipPath id="mx-clip-404-131-152-26-0"><rect x="404" y="131" width="152" height="26"/></clipPath><clipPath id="mx-clip-404-157-152-26-0"><rect x="404" y="157" width="152" height="26"/></clipPath><clipPath id="mx-clip-404-183-152-26-0"><rect x="404" y="183" width="152" height="26"/></clipPath><clipPath id="mx-clip-404-209-152-26-0"><rect x="404" y="209" width="152" height="26"/></clipPath><clipPath id="mx-clip-404-235-152-26-0"><rect x="404" y="235" width="152" height="26"/></clipPath><clipPath id="mx-clip-404-261-152-26-0"><rect x="404" y="261" width="152" height="26"/></clipPath><clipPath id="mx-clip-404-31-152-26-0"><rect x="404" y="31" width="152" height="26"/></clipPath><clipPath id="mx-clip-1014-431-152-26-0"><rect x="1014" y="431" width="152" height="26"/></clipPath><clipPath id="mx-clip-1014-671-152-26-0"><rect x="1014" y="671" width="152" height="26"/></clipPath><clipPath id="mx-clip-1014-705-152-26-0"><rect x="1014" y="705" width="152" height="26"/></clipPath><style type="text/css">@import url(https://fonts.googleapis.com/css?family=Architects+Daughter);&#xa;</style></defs><g><path d="M 0 426 L 0 400 L 160 400 L 160 426" fill="rgb(255, 255, 255)" stroke="rgb(0, 0, 0)" stroke-miterlimit="10" pointer-events="all"/><path d="M 0 426 L 0 582 L 160 582 L 160 426" fill="none" stroke="rgb(0, 0, 0)" stroke-miterlimit="10" pointer-events="none"/><path d="M 0 426 L 160 426" fill="none" stroke="rgb(0, 0, 0)" stroke-miterlimit="10" pointer-events="none"/><g fill="rgb(0, 0, 0)" font-family="Helvetica" font-style="italic" pointer-events="none" text-anchor="middle" font-size="12px"><text x="79.5" y="417.5">IUserRepo</text></g><g fill="rgb(0, 0, 0)" font-family="Helvetica" pointer-events="none" clip-path="url(#mx-clip-4-431-152-26-0)" font-size="12px"><text x="5.5" y="443.5">+ GetByUuid()</text></g><g fill="rgb(0, 0, 0)" font-family="Helvetica" pointer-events="none" clip-path="url(#mx-clip-4-457-152-26-0)" font-size="12px"><text x="5.5" y="469.5">+ List()</text></g><g fill="rgb(0, 0, 0)" font-family="Helvetica" pointer-events="none" clip-path="url(#mx-clip-4-483-152-26-0)" font-size="12px"><text x="5.5" y="495.5">+ Create()</text></g><g fill="rgb(0, 0, 0)" font-family="Helvetica" pointer-events="none" clip-path="url(#mx-clip-4-509-152-26-0)" font-size="12px"><text x="5.5" y="521.5">+ Update()</text></g><g fill="rgb(0, 0, 0)" font-family="Helvetica" pointer-events="none" clip-path="url(#mx-clip-4-535-152-26-0)" font-size="12px"><text x="5.5" y="547.5">+ Delete()</text></g><g fill="rgb(0, 0, 0)" font-family="Helvetica" pointer-events="none" clip-path="url(#mx-clip-4-561-152-26-0)" font-size="12px"><text x="5.5" y="573.5">+ Restore()</text></g><path d="M 0 666 L 0 640 L 160 640 L 160 666" fill="rgb(255, 255, 255)" stroke="rgb(0, 0, 0)" stroke-miterlimit="10" pointer-events="none"/><path d="M 0 666 L 0 856 L 160 856 L 160 666" fill="none" stroke="rgb(0, 0, 0)" stroke-miterlimit="10" pointer-events="none"/><path d="M 0 666 L 160 666" fill="none" stroke="rgb(0, 0, 0)" stroke-miterlimit="10" pointer-events="none"/><g fill="rgb(0, 0, 0)" font-family="Helvetica" font-style="italic" pointer-events="none" text-anchor="middle" font-size="12px"><text x="79.5" y="657.5">userRepo</text></g><g fill="rgb(0, 0, 0)" font-family="Helvetica" pointer-events="none" clip-path="url(#mx-clip-4-671-152-26-0)" font-size="12px"><text x="5.5" y="683.5">- dbClient</text></g><path d="M 0 696 L 160 696" fill="none" stroke="rgb(0, 0, 0)" stroke-miterlimit="10" pointer-events="none"/><g fill="rgb(0, 0, 0)" font-family="Helvetica" pointer-events="none" clip-path="url(#mx-clip-4-705-152-26-0)" font-size="12px"><text x="5.5" y="717.5">+ GetByUuid()</text></g><g fill="rgb(0, 0, 0)" font-family="Helvetica" pointer-events="none" clip-path="url(#mx-clip-4-731-152-26-0)" font-size="12px"><text x="5.5" y="743.5">+ List()</text></g><g fill="rgb(0, 0, 0)" font-family="Helvetica" pointer-events="none" clip-path="url(#mx-clip-4-757-152-26-0)" font-size="12px"><text x="5.5" y="769.5">+ Create()</text></g><g fill="rgb(0, 0, 0)" font-family="Helvetica" pointer-events="none" clip-path="url(#mx-clip-4-783-152-26-0)" font-size="12px"><text x="5.5" y="795.5">+ Update()</text></g><g fill="rgb(0, 0, 0)" font-family="Helvetica" pointer-events="none" clip-path="url(#mx-clip-4-809-152-26-0)" font-size="12px"><text x="5.5" y="821.5">+ Delete()</text></g><g fill="rgb(0, 0, 0)" font-family="Helvetica" pointer-events="none" clip-path="url(#mx-clip-4-835-152-26-0)" font-size="12px"><text x="5.5" y="847.5">+ Restore()</text></g><path d="M 80 640 L 80 596.12" fill="none" stroke="rgb(0, 0, 0)" stroke-miterlimit="10" stroke-dasharray="3 3" pointer-events="none"/><path d="M 80 583.12 L 86.5 596.12 L 73.5 596.12 Z" fill="none" stroke="rgb(0, 0, 0)" stroke-miterlimit="10" pointer-events="none"/><path d="M 200 426 L 200 400 L 360 400 L 360 426" fill="rgb(255, 255, 255)" stroke="rgb(0, 0, 0)" stroke-miterlimit="10" pointer-events="none"/><path d="M 200 426 L 200 582 L 360 582 L 360 426" fill="none" stroke="rgb(0, 0, 0)" stroke-miterlimit="10" pointer-events="none"/><path d="M 200 426 L 360 426" fill="none" stroke="rgb(0, 0, 0)" stroke-miterlimit="10" pointer-events="none"/><g fill="rgb(0, 0, 0)" font-family="Helvetica" font-style="italic" pointer-events="none" text-anchor="middle" font-size="12px"><text x="279.5" y="417.5">IInvationRepo</text></g><g fill="rgb(0, 0, 0)" font-family="Helvetica" pointer-events="none" clip-path="url(#mx-clip-204-431-152-26-0)" font-size="12px"><text x="205.5" y="443.5">+ GetByUuid()</text></g><g fill="rgb(0, 0, 0)" font-family="Helvetica" pointer-events="none" clip-path="url(#mx-clip-204-457-152-26-0)" font-size="12px"><text x="205.5" y="469.5">+ ListByUser()</text></g><g fill="rgb(0, 0, 0)" font-family="Helvetica" pointer-events="none" clip-path="url(#mx-clip-204-483-152-26-0)" font-size="12px"><text x="205.5" y="495.5">+ List()</text></g><g fill="rgb(0, 0, 0)" font-family="Helvetica" pointer-events="none" clip-path="url(#mx-clip-204-509-152-26-0)" font-size="12px"><text x="205.5" y="521.5">+ Create()</text></g><g fill="rgb(0, 0, 0)" font-family="Helvetica" pointer-events="none" clip-path="url(#mx-clip-204-535-152-26-0)" font-size="12px"><text x="205.5" y="547.5">+ Update()</text></g><g fill="rgb(0, 0, 0)" font-family="Helvetica" pointer-events="none" clip-path="url(#mx-clip-204-561-152-26-0)" font-size="12px"><text x="205.5" y="573.5">+ Delete()</text></g><path d="M 200 666 L 200 640 L 360 640 L 360 666" fill="rgb(255, 255, 255)" stroke="rgb(0, 0, 0)" stroke-miterlimit="10" pointer-events="none"/><path d="M 200 666 L 200 856 L 360 856 L 360 666" fill="none" stroke="rgb(0, 0, 0)" stroke-miterlimit="10" pointer-events="none"/><path d="M 200 666 L 360 666" fill="none" stroke="rgb(0, 0, 0)" stroke-miterlimit="10" pointer-events="none"/><g fill="rgb(0, 0, 0)" font-family="Helvetica" font-style="italic" pointer-events="none" text-anchor="middle" font-size="12px"><text x="279.5" y="657.5">invationRepo</text></g><g fill="rgb(0, 0, 0)" font-family="Helvetica" pointer-events="none" clip-path="url(#mx-clip-204-671-152-26-0)" font-size="12px"><text x="205.5" y="683.5">- dbClient</text></g><path d="M 200 696 L 360 696" fill="none" stroke="rgb(0, 0, 0)" stroke-miterlimit="10" pointer-events="none"/><g fill="rgb(0, 0, 0)" font-family="Helvetica" pointer-events="none" clip-path="url(#mx-clip-204-705-152-26-0)" font-size="12px"><text x="205.5" y="717.5">+ GetByUuid()</text></g><g fill="rgb(0, 0, 0)" font-family="Helvetica" pointer-events="none" clip-path="url(#mx-clip-204-731-152-26-0)" font-size="12px"><text x="205.5" y="743.5">+ ListByUser()</text></g><g fill="rgb(0, 0, 0)" font-family="Helvetica" pointer-events="none" clip-path="url(#mx-clip-204-757-152-26-0)" font-size="12px"><text x="205.5" y="769.5">+ List()</text></g><g fill="rgb(0, 0, 0)" font-family="Helvetica" pointer-events="none" clip-path="url(#mx-clip-204-783-152-26-0)" font-size="12px"><text x="205.5" y="795.5">+ Create()</text></g><g fill="rgb(0, 0, 0)" font-family="Helvetica" pointer-events="none" clip-path="url(#mx-clip-204-809-152-26-0)" font-size="12px"><text x="205.5" y="821.5">+ Update()</text></g><g fill="rgb(0, 0, 0)" font-family="Helvetica" pointer-events="none" clip-path="url(#mx-clip-204-835-152-26-0)" font-size="12px"><text x="205.5" y="847.5">+ Delete()</text></g><path d="M 280 640 L 280 596.12" fill="none" stroke="rgb(0, 0, 0)" stroke-miterlimit="10" stroke-dasharray="3 3" pointer-events="none"/><path d="M 280 583.12 L 286.5 596.12 L 273.5 596.12 Z" fill="none" stroke="rgb(0, 0, 0)" stroke-miterlimit="10" pointer-events="none"/><path d="M 400 426 L 400 400 L 560 400 L 560 426" fill="rgb(255, 255, 255)" stroke="rgb(0, 0, 0)" stroke-miterlimit="10" pointer-events="none"/><path d="M 400 426 L 400 478 L 560 478 L 560 426" fill="none" stroke="rgb(0, 0, 0)" stroke-miterlimit="10" pointer-events="none"/><path d="M 400 426 L 560 426" fill="none" stroke="rgb(0, 0, 0)" stroke-miterlimit="10" pointer-events="none"/><g fill="rgb(0, 0, 0)" font-family="Helvetica" font-style="italic" pointer-events="none" text-anchor="middle" font-size="12px"><text x="479.5" y="417.5">IAccessRightRepo</text></g><g fill="rgb(0, 0, 0)" font-family="Helvetica" pointer-events="none" clip-path="url(#mx-clip-404-431-152-26-0)" font-size="12px"><text x="405.5" y="443.5">+ GetByCode()</text></g><g fill="rgb(0, 0, 0)" font-family="Helvetica" pointer-events="none" clip-path="url(#mx-clip-404-457-152-26-0)" font-size="12px"><text x="405.5" y="469.5">+ List()</text></g><path d="M 400 666 L 400 640 L 560 640 L 560 666" fill="rgb(255, 255, 255)" stroke="rgb(0, 0, 0)" stroke-miterlimit="10" pointer-events="none"/><path d="M 400 666 L 400 752 L 560 752 L 560 666" fill="none" stroke="rgb(0, 0, 0)" stroke-miterlimit="10" pointer-events="none"/><path d="M 400 666 L 560 666" fill="none" stroke="rgb(0, 0, 0)" stroke-miterlimit="10" pointer-events="none"/><g fill="rgb(0, 0, 0)" font-family="Helvetica" font-style="italic" pointer-events="none" text-anchor="middle" font-size="12px"><text x="479.5" y="657.5">accessRightRepo</text></g><g fill="rgb(0, 0, 0)" font-family="Helvetica" pointer-events="none" clip-path="url(#mx-clip-404-671-152-26-0)" font-size="12px"><text x="405.5" y="683.5">- dbClient</text></g><path d="M 400 696 L 560 696" fill="none" stroke="rgb(0, 0, 0)" stroke-miterlimit="10" pointer-events="none"/><g fill="rgb(0, 0, 0)" font-family="Helvetica" pointer-events="none" clip-path="url(#mx-clip-404-705-152-26-0)" font-size="12px"><text x="405.5" y="717.5">+ GetByCode()</text></g><g fill="rgb(0, 0, 0)" font-family="Helvetica" pointer-events="none" clip-path="url(#mx-clip-404-731-152-26-0)" font-size="12px"><text x="405.5" y="743.5">+ List()</text></g><path d="M 480 640 L 480 492.12" fill="none" stroke="rgb(0, 0, 0)" stroke-miterlimit="10" stroke-dasharray="3 3" pointer-events="none"/><path d="M 480 479.12 L 486.5 492.12 L 473.5 492.12 Z" fill="none" stroke="rgb(0, 0, 0)" stroke-miterlimit="10" pointer-events="none"/><path d="M 600 426 L 600 400 L 760 400 L 760 426" fill="rgb(255, 255, 255)" stroke="rgb(0, 0, 0)" stroke-miterlimit="10" pointer-events="none"/><path d="M 600 426 L 600 582 L 760 582 L 760 426" fill="none" stroke="rgb(0, 0, 0)" stroke-miterlimit="10" pointer-events="none"/><path d="M 600 426 L 760 426" fill="none" stroke="rgb(0, 0, 0)" stroke-miterlimit="10" pointer-events="none"/><g fill="rgb(0, 0, 0)" font-family="Helvetica" font-style="italic" pointer-events="none" text-anchor="middle" font-size="12px"><text x="679.5" y="417.5">IEventRepo</text></g><g fill="rgb(0, 0, 0)" font-family="Helvetica" pointer-events="none" clip-path="url(#mx-clip-604-431-152-26-0)" font-size="12px"><text x="605.5" y="443.5">+ GetByUuid()</text></g><g fill="rgb(0, 0, 0)" font-family="Helvetica" pointer-events="none" clip-path="url(#mx-clip-604-457-152-26-0)" font-size="12px"><text x="605.5" y="469.5">+ Search()</text></g><g fill="rgb(0, 0, 0)" font-family="Helvetica" pointer-events="none" clip-path="url(#mx-clip-604-483-152-26-0)" font-size="12px"><text x="605.5" y="495.5">+ List()</text></g><g fill="rgb(0, 0, 0)" font-family="Helvetica" pointer-events="none" clip-path="url(#mx-clip-604-509-152-26-0)" font-size="12px"><text x="605.5" y="521.5">+ Create()</text></g><g fill="rgb(0, 0, 0)" font-family="Helvetica" pointer-events="none" clip-path="url(#mx-clip-604-535-152-26-0)" font-size="12px"><text x="605.5" y="547.5">+ Update()</text></g><g fill="rgb(0, 0, 0)" font-family="Helvetica" pointer-events="none" clip-path="url(#mx-clip-604-561-152-26-0)" font-size="12px"><text x="605.5" y="573.5">+ Delete()</text></g><path d="M 600 666 L 600 640 L 760 640 L 760 666" fill="rgb(255, 255, 255)" stroke="rgb(0, 0, 0)" stroke-miterlimit="10" pointer-events="none"/><path d="M 600 666 L 600 856 L 760 856 L 760 666" fill="none" stroke="rgb(0, 0, 0)" stroke-miterlimit="10" pointer-events="none"/><path d="M 600 666 L 760 666" fill="none" stroke="rgb(0, 0, 0)" stroke-miterlimit="10" pointer-events="none"/><g fill="rgb(0, 0, 0)" font-family="Helvetica" font-style="italic" pointer-events="none" text-anchor="middle" font-size="12px"><text x="679.5" y="657.5">eventRepo</text></g><g fill="rgb(0, 0, 0)" font-family="Helvetica" pointer-events="none" clip-path="url(#mx-clip-604-671-152-26-0)" font-size="12px"><text x="605.5" y="683.5">- dbClient</text></g><path d="M 600 696 L 760 696" fill="none" stroke="rgb(0, 0, 0)" stroke-miterlimit="10" pointer-events="none"/><g fill="rgb(0, 0, 0)" font-family="Helvetica" pointer-events="none" clip-path="url(#mx-clip-604-705-152-26-0)" font-size="12px"><text x="605.5" y="717.5">+ GetByUuid()</text></g><g fill="rgb(0, 0, 0)" font-family="Helvetica" pointer-events="none" clip-path="url(#mx-clip-604-731-152-26-0)" font-size="12px"><text x="605.5" y="743.5">+ Search()</text></g><g fill="rgb(0, 0, 0)" font-family="Helvetica" pointer-events="none" clip-path="url(#mx-clip-604-757-152-26-0)" font-size="12px"><text x="605.5" y="769.5">+ List()</text></g><g fill="rgb(0, 0, 0)" font-family="Helvetica" pointer-events="none" clip-path="url(#mx-clip-604-783-152-26-0)" font-size="12px"><text x="605.5" y="795.5">+ Create()</text></g><g fill="rgb(0, 0, 0)" font-family="Helvetica" pointer-events="none" clip-path="url(#mx-clip-604-809-152-26-0)" font-size="12px"><text x="605.5" y="821.5">+ Update()</text></g><g fill="rgb(0, 0, 0)" font-family="Helvetica" pointer-events="none" clip-path="url(#mx-clip-604-835-152-26-0)" font-size="12px"><text x="605.5" y="847.5">+ Delete()</text></g><path d="M 680 640 L 680 596.12" fill="none" stroke="rgb(0, 0, 0)" stroke-miterlimit="10" stroke-dasharray="3 3" pointer-events="none"/><path d="M 680 583.12 L 686.5 596.12 L 673.5 596.12 Z" fill="none" stroke="rgb(0, 0, 0)" stroke-miterlimit="10" pointer-events="none"/><path d="M 804 426 L 804 400 L 964 400 L 964 426" fill="rgb(255, 255, 255)" stroke="rgb(0, 0, 0)" stroke-miterlimit="10" pointer-events="none"/><path d="M 804 426 L 804 556 L 964 556 L 964 426" fill="none" stroke="rgb(0, 0, 0)" stroke-miterlimit="10" pointer-events="none"/><path d="M 804 426 L 964 426" fill="none" stroke="rgb(0, 0, 0)" stroke-miterlimit="10" pointer-events="none"/><g fill="rgb(0, 0, 0)" font-family="Helvetica" font-style="italic" pointer-events="none" text-anchor="middle" font-size="12px"><text x="883.5" y="417.5">ITagRepo</text></g><g fill="rgb(0, 0, 0)" font-family="Helvetica" pointer-events="none" clip-path="url(#mx-clip-808-431-152-26-0)" font-size="12px"><text x="809.5" y="443.5">+ GetByUuid()</text></g><g fill="rgb(0, 0, 0)" font-family="Helvetica" pointer-events="none" clip-path="url(#mx-clip-808-457-152-26-0)" font-size="12px"><text x="809.5" y="469.5">+ List()</text></g><g fill="rgb(0, 0, 0)" font-family="Helvetica" pointer-events="none" clip-path="url(#mx-clip-808-483-152-26-0)" font-size="12px"><text x="809.5" y="495.5">+ Create()</text></g><g fill="rgb(0, 0, 0)" font-family="Helvetica" pointer-events="none" clip-path="url(#mx-clip-808-509-152-26-0)" font-size="12px"><text x="809.5" y="521.5">+ Update()</text></g><g fill="rgb(0, 0, 0)" font-family="Helvetica" pointer-events="none" clip-path="url(#mx-clip-808-535-152-26-0)" font-size="12px"><text x="809.5" y="547.5">+ Delete()</text></g><path d="M 804 666 L 804 640 L 964 640 L 964 666" fill="rgb(255, 255, 255)" stroke="rgb(0, 0, 0)" stroke-miterlimit="10" pointer-events="none"/><path d="M 804 666 L 804 830 L 964 830 L 964 666" fill="none" stroke="rgb(0, 0, 0)" stroke-miterlimit="10" pointer-events="none"/><path d="M 804 666 L 964 666" fill="none" stroke="rgb(0, 0, 0)" stroke-miterlimit="10" pointer-events="none"/><g fill="rgb(0, 0, 0)" font-family="Helvetica" font-style="italic" pointer-events="none" text-anchor="middle" font-size="12px"><text x="883.5" y="657.5">tagRepo</text></g><g fill="rgb(0, 0, 0)" font-family="Helvetica" pointer-events="none" clip-path="url(#mx-clip-808-671-152-26-0)" font-size="12px"><text x="809.5" y="683.5">- dbClient</text></g><path d="M 804 696 L 964 696" fill="none" stroke="rgb(0, 0, 0)" stroke-miterlimit="10" pointer-events="none"/><g fill="rgb(0, 0, 0)" font-family="Helvetica" pointer-events="none" clip-path="url(#mx-clip-808-705-152-26-0)" font-size="12px"><text x="809.5" y="717.5">+ GetByUuid()</text></g><g fill="rgb(0, 0, 0)" font-family="Helvetica" pointer-events="none" clip-path="url(#mx-clip-808-731-152-26-0)" font-size="12px"><text x="809.5" y="743.5">+ List()</text></g><g fill="rgb(0, 0, 0)" font-family="Helvetica" pointer-events="none" clip-path="url(#mx-clip-808-757-152-26-0)" font-size="12px"><text x="809.5" y="769.5">+ Create()</text></g><g fill="rgb(0, 0, 0)" font-family="Helvetica" pointer-events="none" clip-path="url(#mx-clip-808-783-152-26-0)" font-size="12px"><text x="809.5" y="795.5">+ Update()</text></g><g fill="rgb(0, 0, 0)" font-family="Helvetica" pointer-events="none" clip-path="url(#mx-clip-808-809-152-26-0)" font-size="12px"><text x="809.5" y="821.5">+ Delete()</text></g><path d="M 884 640 L 884 570.12" fill="none" stroke="rgb(0, 0, 0)" stroke-miterlimit="10" stroke-dasharray="3 3" pointer-events="none"/><path d="M 884 557.12 L 890.5 570.12 L 877.5 570.12 Z" fill="none" stroke="rgb(0, 0, 0)" stroke-miterlimit="10" pointer-events="none"/><path d="M 400 126 L 400 100 L 560 100 L 560 126" fill="rgb(255, 255, 255)" stroke="rgb(0, 0, 0)" stroke-miterlimit="10" pointer-events="none"/><path d="M 400 126 L 400 282 L 560 282 L 560 126" fill="none" stroke="rgb(0, 0, 0)" stroke-miterlimit="10" pointer-events="none"/><path d="M 400 126 L 560 126" fill="none" stroke="rgb(0, 0, 0)" stroke-miterlimit="10" pointer-events="none"/><g fill="rgb(0, 0, 0)" font-family="Helvetica" font-style="italic" pointer-events="none" text-anchor="middle" font-size="12px"><text x="479.5" y="117.5">Repo</text></g><g fill="rgb(0, 0, 0)" font-family="Helvetica" pointer-events="none" clip-path="url(#mx-clip-404-131-152-26-0)" font-size="12px"><text x="405.5" y="143.5">+ IUserRepo</text></g><g fill="rgb(0, 0, 0)" font-family="Helvetica" pointer-events="none" clip-path="url(#mx-clip-404-157-152-26-0)" font-size="12px"><text x="405.5" y="169.5">+ IInvationRepo</text></g><g fill="rgb(0, 0, 0)" font-family="Helvetica" pointer-events="none" clip-path="url(#mx-clip-404-183-152-26-0)" font-size="12px"><text x="405.5" y="195.5">+ IAccessRightRepo</text></g><g fill="rgb(0, 0, 0)" font-family="Helvetica" pointer-events="none" clip-path="url(#mx-clip-404-209-152-26-0)" font-size="12px"><text x="405.5" y="221.5">+ IEventRepo</text></g><g fill="rgb(0, 0, 0)" font-family="Helvetica" pointer-events="none" clip-path="url(#mx-clip-404-235-152-26-0)" font-size="12px"><text x="405.5" y="247.5">+ ITagRepo</text></g><path d="M 480.09 282 L 480.09 360.09 Q 480.09 370.09 480.09 360.09 L 480.09 307.99" fill="none" stroke="rgb(0, 0, 0)" stroke-miterlimit="10" pointer-events="none"/><path d="M 480.09 282.99 L 487.44 295.49 L 480.09 307.99 L 472.74 295.49 Z" fill="rgb(0, 0, 0)" stroke="rgb(0, 0, 0)" stroke-miterlimit="10" pointer-events="none"/><g fill="rgb(0, 0, 0)" font-family="Helvetica" pointer-events="none" clip-path="url(#mx-clip-404-261-152-26-0)" font-size="12px"><text x="405.5" y="273.5">+ ISearchRepo</text></g><path d="M 80.09 400 L 80.09 340.09 Q 80.09 330.09 90.09 330.09 L 470.09 330.09 Q 480.09 330.09 480.09 320.09 L 480.09 307.99" fill="none" stroke="rgb(0, 0, 0)" stroke-miterlimit="10" pointer-events="none"/><path d="M 480.09 282.99 L 487.44 295.49 L 480.09 307.99 L 472.74 295.49 Z" fill="rgb(0, 0, 0)" stroke="rgb(0, 0, 0)" stroke-miterlimit="10" pointer-events="none"/><path d="M 280.09 400 L 280.09 340.09 Q 280.09 330.09 290.09 330.09 L 470.09 330.09 Q 480.09 330.09 480.09 320.09 L 480.09 307.99" fill="none" stroke="rgb(0, 0, 0)" stroke-miterlimit="10" pointer-events="none"/><path d="M 480.09 282.99 L 487.44 295.49 L 480.09 307.99 L 472.74 295.49 Z" fill="rgb(0, 0, 0)" stroke="rgb(0, 0, 0)" stroke-miterlimit="10" pointer-events="none"/><path d="M 480.09 400 L 480.09 340.09 Q 480.09 330.09 480.09 320.09 L 480.09 307.99" fill="none" stroke="rgb(0, 0, 0)" stroke-miterlimit="10" pointer-events="none"/><path d="M 480.09 282.99 L 487.44 295.49 L 480.09 307.99 L 472.74 295.49 Z" fill="rgb(0, 0, 0)" stroke="rgb(0, 0, 0)" stroke-miterlimit="10" pointer-events="none"/><path d="M 670.09 400 L 670.09 340.09 Q 670.09 330.09 660.09 330.09 L 490.09 330.09 Q 480.09 330.09 480.09 320.09 L 480.09 307.99" fill="none" stroke="rgb(0, 0, 0)" stroke-miterlimit="10" pointer-events="none"/><path d="M 480.09 282.99 L 487.44 295.49 L 480.09 307.99 L 472.74 295.49 Z" fill="rgb(0, 0, 0)" stroke="rgb(0, 0, 0)" stroke-miterlimit="10" pointer-events="none"/><path d="M 400 26 L 400 0 L 560 0 L 560 26" fill="rgb(255, 255, 255)" stroke="rgb(0, 0, 0)" stroke-miterlimit="10" pointer-events="none"/><path d="M 400 26 L 400 52 L 560 52 L 560 26" fill="none" stroke="rgb(0, 0, 0)" stroke-miterlimit="10" pointer-events="none"/><path d="M 400 26 L 560 26" fill="none" stroke="rgb(0, 0, 0)" stroke-miterlimit="10" pointer-events="none"/><g fill="rgb(0, 0, 0)" font-family="Helvetica" font-style="italic" pointer-events="none" text-anchor="middle" font-size="12px"><text x="479.5" y="17.5">DI</text></g><g fill="rgb(0, 0, 0)" font-family="Helvetica" pointer-events="none" clip-path="url(#mx-clip-404-31-152-26-0)" font-size="12px"><text x="405.5" y="43.5">+ Repo</text></g><path d="M 480 100 L 480 77.99" fill="none" stroke="rgb(0, 0, 0)" stroke-miterlimit="10" pointer-events="none"/><path d="M 480 52.99 L 487.35 65.49 L 480 77.99 L 472.65 65.49 Z" fill="rgb(0, 0, 0)" stroke="rgb(0, 0, 0)" stroke-miterlimit="10" pointer-events="none"/><path d="M 880.09 400 L 880.09 340.09 Q 880.09 330.09 870.09 330.09 L 490.09 330.09 Q 480.09 330.09 480.09 320.09 L 480.09 282" fill="none" stroke="rgb(0, 0, 0)" stroke-miterlimit="10" pointer-events="none"/><path d="M 1010 426 L 1010 400 L 1170 400 L 1170 426" fill="rgb(255, 255, 255)" stroke="rgb(0, 0, 0)" stroke-miterlimit="10" pointer-events="none"/><path d="M 1010 426 L 1010 452 L 1170 452 L 1170 426" fill="none" stroke="rgb(0, 0, 0)" stroke-miterlimit="10" pointer-events="none"/><path d="M 1010 426 L 1170 426" fill="none" stroke="rgb(0, 0, 0)" stroke-miterlimit="10" pointer-events="none"/><g fill="rgb(0, 0, 0)" font-family="Helvetica" font-style="italic" pointer-events="none" text-anchor="middle" font-size="12px"><text x="1089.5" y="417.5">ISearchRepo</text></g><g fill="rgb(0, 0, 0)" font-family="Helvetica" pointer-events="none" clip-path="url(#mx-clip-1014-431-152-26-0)" font-size="12px"><text x="1015.5" y="443.5">+ SearchEvents()</text></g><path d="M 1010 666 L 1010 640 L 1170 640 L 1170 666" fill="rgb(255, 255, 255)" stroke="rgb(0, 0, 0)" stroke-miterlimit="10" pointer-events="none"/><path d="M 1010 666 L 1010 726 L 1170 726 L 1170 666" fill="none" stroke="rgb(0, 0, 0)" stroke-miterlimit="10" pointer-events="none"/><path d="M 1010 666 L 1170 666" fill="none" stroke="rgb(0, 0, 0)" stroke-miterlimit="10" pointer-events="none"/><g fill="rgb(0, 0, 0)" font-family="Helvetica" font-style="italic" pointer-events="none" text-anchor="middle" font-size="12px"><text x="1089.5" y="657.5">searchRepo</text></g><g fill="rgb(0, 0, 0)" font-family="Helvetica" pointer-events="none" clip-path="url(#mx-clip-1014-671-152-26-0)" font-size="12px"><text x="1015.5" y="683.5">- dbClient</text></g><path d="M 1010 696 L 1170 696" fill="none" stroke="rgb(0, 0, 0)" stroke-miterlimit="10" pointer-events="none"/><g fill="rgb(0, 0, 0)" font-family="Helvetica" pointer-events="none" clip-path="url(#mx-clip-1014-705-152-26-0)" font-size="12px"><text x="1015.5" y="717.5">+ SearchEvents()</text></g><path d="M 1090 640 L 1090 466.12" fill="none" stroke="rgb(0, 0, 0)" stroke-miterlimit="10" stroke-dasharray="3 3" pointer-events="none"/><path d="M 1090 453.12 L 1096.5 466.12 L 1083.5 466.12 Z" fill="none" stroke="rgb(0, 0, 0)" stroke-miterlimit="10" pointer-events="none"/><path d="M 1090.09 400 L 1090.09 340.09 Q 1090.09 330.09 1080.09 330.09 L 490.09 330.09 Q 480.09 330.09 480.09 320.09 L 480.09 282" fill="none" stroke="rgb(0, 0, 0)" stroke-miterlimit="10" pointer-events="none"/></g></svg>